<svg id="Layer_1" xmlns="http://www.w3.org/2000/svg" viewBox="0 0 165 86"><style>.st0{fill:#0096d6}.st1{fill:#005587}</style><path class="st0" d="M134.9 18.6c.1-7.7 6.4-13.9 14.1-13.9 3.5 0 6.6 1.2 9.1 3.3.8.6 1.8 1 2.8 1h3.9c-3.4-5.4-9.5-9-16.4-8.7-10.1.3-18 8.6-18 18.7 0 2.4.5 4.8 1.3 6.9h4.9c-1.1-2.2-1.8-4.7-1.7-7.3z"/><path class="st1" d="M161 28.5c-1 0-2 .4-2.8 1-2.1 1.8-4.6 2.9-7.4 3.3V18.5h3.5c1.6 0 3-1.3 3-3V15h-6.5c1.2-.6 2.1-1.9 2.1-3.4 0-2.1-1.7-3.9-3.9-3.9s-3.9 1.7-3.9 3.9c0 1.5.8 2.8 2.1 3.4h-6.4v.5c0 1.7 1.4 3 3 3h3.5v14.4c-2.8-.3-5.3-1.5-7.4-3.2-.8-.7-1.8-1-2.8-1h-3.9c3.3 5.3 9.1 8.8 15.8 8.8 6.7 0 12.6-3.5 15.8-8.9H161zM149 9.9c.9 0 1.6.7 1.6 1.6 0 .9-.7 1.6-1.6 1.6s-1.6-.7-1.6-1.6c0-.9.7-1.6 1.6-1.6z"/><path class="st0" d="M15.4 66.6c-4.6 0-8.3-1.6-11.1-4.9C1.4 58.5 0 54.4 0 49.6 0 45 1.5 41 4.5 37.7c3-3.3 6.6-5 10.8-5 3.8 0 6.8 1.3 9 3.8l.9-3.6h3.2v12.7h-3C23 39.2 19.8 36 15.6 36c-2.9 0-5.3 1.1-7 3.3-1.8 2.2-2.7 5.5-2.7 10.1 0 4.4.9 7.9 2.7 10.3 1.8 2.4 4.3 3.6 7.6 3.6 2.8 0 5-1 6.8-2.9 1.7-1.9 2.8-4.4 3.2-7.4h3.5c-.4 4.3-1.9 7.6-4.5 10.1-2.7 2.3-5.9 3.5-9.8 3.5zM36.9 66.1c-2 0-3.6-.5-4.8-1.6-1.2-1.1-1.7-2.5-1.7-4.2 0-1.6.6-3 1.7-4.1.9-.9 1.9-1.5 3.1-1.9 1.2-.4 3-.8 5.2-1.1 1.6-.2 2.5-.4 2.9-.5.4-.1.5-.4.5-.8v-2.3c0-1.4-.4-2.5-1.1-3.1-.7-.6-1.8-.9-3.4-.9-1.4 0-2.6.3-3.8.9 1 .5 1.4 1.3 1.4 2.4 0 .8-.3 1.4-.8 2-.5.5-1.2.8-2.1.8-.9 0-1.6-.3-2.2-.9-.5-.6-.8-1.2-.8-2 0-1.7.9-3.1 2.7-4.2 1.8-1 4-1.6 6.6-1.6 5.4 0 8.1 2.3 8.1 6.8v11.4c0 .6.1 1 .3 1.3.2.2.6.4 1.2.4.7 0 1.2-.6 1.8-1.8l1.7 1c-1.1 2.6-2.8 3.9-5.1 3.9-1.1 0-2.1-.3-2.9-1-.8-.7-1.2-1.6-1.2-2.9H44c-.6 1.2-1.6 2.1-3 2.9-1.2.7-2.6 1.1-4.1 1.1zM39 63c1.2 0 2.3-.4 3.3-1.3s1.5-2 1.5-3.2v-3.9c-.3.1-1.1.3-2.2.5-2.5.4-4.2.9-5 1.4-.8.5-1.3 1.5-1.3 2.9 0 1.1.3 2 .9 2.7.7.5 1.6.9 2.8.9z"/><path class="st0" d="M74.9 48.8c2.5-3.8 5.2-5.8 8.3-5.8 1.8 0 3.2.6 4.2 1.9 1 1.2 1.5 3 1.5 5.2v12.5h3.6v3.2H81.2v-3.2h3V51.7c0-1.9-.4-3.2-1.2-4-.6-.6-1.4-.9-2.5-.9-1.3 0-2.6.7-3.8 2-1.2 1.3-1.8 3.1-1.8 5.2v8.6h3v3.2H67.3v-3.2h3V51.7c0-1.9-.4-3.2-1.2-4-.6-.6-1.4-.9-2.5-.9-1.4 0-2.7.7-3.9 2-1.2 1.3-1.8 3.1-1.8 5.2v8.6h3v3.2H52.8v-3.2h3.6v-16h-3.6v-3.2h8.1V49c2.4-4 5.2-6 8.3-6 3.5 0 5.4 2 5.7 5.8zM101.7 66.3c-2.4 0-4.3-.8-6-2.4-2.1-2.1-3.2-5.1-3.2-9 0-1.8.3-3.6.9-5.3.6-1.7 1.4-3.1 2.5-4.2 1.7-1.7 3.7-2.5 6.1-2.5 3 0 5.3 1.3 6.9 3.9V35.6h-3.7v-3.5h8.4v30.5h3.3v3.2H109v-4.6c-1.6 3.4-4.1 5.1-7.3 5.1zm1.6-3.1c1.6 0 2.9-.8 4.1-2.4 1.1-1.6 1.7-3.7 1.7-6.3 0-2.4-.5-4.5-1.5-6.1-1-1.6-2.4-2.4-4.3-2.4-1.8 0-3.2.7-4.2 2.2-1 1.5-1.5 3.6-1.5 6.3 0 2.7.5 4.8 1.6 6.3 1.1 1.6 2.5 2.4 4.1 2.4zM137.8 54.9h-15.5c.1 5.5 2.4 8.3 6.9 8.3 2.9 0 4.9-1.4 6.2-4.2h2.4c-.6 2.4-1.8 4.2-3.5 5.4-1.7 1.2-3.8 1.8-6.3 1.8-3.3 0-6-1.1-7.9-3.2-1.9-2.1-2.9-4.9-2.9-8.2 0-3.4 1-6.2 3.1-8.5s4.7-3.4 7.9-3.4 5.6 1.2 7.2 3.5c1.7 2.4 2.5 5.2 2.4 8.5zm-9.9-9.4c-3.3 0-5.2 2.3-5.6 7h10.8c-.4-4.6-2.1-7-5.2-7zM138.6 65.9v-3.2h3.6v-16h-3.6v-3.2h8.1V49c2.4-4 5.2-6 8.5-6 1.8 0 3.3.6 4.4 1.9 1.1 1.2 1.6 3 1.6 5.2v12.5h3.6v3.2h-11.5v-3.2h3.3V51.7c0-1.8-.4-3.1-1.2-3.9-.7-.7-1.5-1-2.7-1-1.5 0-2.8.7-4 2-1.2 1.3-1.8 3.1-1.8 5.2v8.6h3.3v3.2h-11.6z"/><g><path class="st1" d="M3.4 71.9h2.1l6 9.1v-9.1h2.2v13.7h-1.9l-6.2-9.4v9.4H3.4V71.9zM21.8 71.8H24l5 13.8h-2.4l-1.1-3.2h-5.3l-1.1 3.2h-2.3l5-13.8zm3 8.5l-2-5.5-2 5.5h4zM33.6 74H30v-2.1h9.5V74h-3.6v11.6h-2.3V74zM42.8 71.9h2.3v13.7h-2.3V71.9zM55.2 85.8c-.9 0-1.7-.2-2.4-.5s-1.4-.8-1.9-1.4c-.5-.6-.9-1.3-1.2-2.2-.3-.8-.4-1.8-.4-2.8v-.2c0-1 .1-2 .4-2.8.3-.9.7-1.6 1.3-2.2.5-.6 1.2-1.1 1.9-1.4.7-.3 1.6-.5 2.5-.5.9 0 1.7.2 2.4.5s1.4.8 1.9 1.4c.5.6.9 1.3 1.2 2.2.3.8.4 1.8.4 2.8v.2c0 1-.1 2-.4 2.8-.3.9-.7 1.6-1.3 2.2-.5.6-1.2 1.1-1.9 1.4-.8.3-1.6.5-2.5.5zm0-2.1c.5 0 1-.1 1.5-.4.5-.2.8-.6 1.2-1 .3-.4.6-.9.8-1.5.2-.6.3-1.3.3-2v-.1c0-.7-.1-1.4-.3-2-.2-.6-.4-1.1-.8-1.6-.3-.4-.7-.8-1.2-1-.5-.2-1-.4-1.5-.4s-1 .1-1.5.4c-.5.2-.8.6-1.2 1-.3.4-.6.9-.8 1.5-.2.6-.3 1.3-.3 2v.1c0 .7.1 1.4.3 2 .2.6.4 1.1.8 1.6.3.4.7.8 1.2 1 .5.2 1 .4 1.5.4zM65.2 71.9h2.1l6 9.1v-9.1h2.2v13.7h-1.9l-6.2-9.4v9.4h-2.2V71.9zM83.6 71.8h2.2l5 13.8h-2.4l-1.1-3.2H82l-1.1 3.2h-2.3l5-13.8zm3 8.5l-2-5.5-2 5.5h4zM93.8 71.9h2.3v11.6h5.9v2.1h-8.1V71.9zM112.3 71.9h4.9c.7 0 1.4.1 2 .3.6.2 1.1.5 1.5.9.6.6.9 1.4.9 2.3v.1c0 .4-.1.8-.2 1.1-.1.3-.3.6-.4.9-.2.2-.4.5-.6.6-.2.2-.5.3-.8.5.8.3 1.4.6 1.9 1.1.5.5.7 1.2.7 2.1v.1c0 .6-.1 1.1-.4 1.6-.2.5-.6.9-1 1.2-.4.3-.9.6-1.5.7-.6.2-1.3.2-2 .2h-5V71.9zm7 3.8c0-.6-.2-1-.6-1.3-.4-.3-1-.5-1.7-.5h-2.5v3.8h2.4c.7 0 1.3-.2 1.8-.5.4-.3.6-.8.6-1.5zm.6 5.8c0-.6-.2-1.1-.7-1.4-.5-.3-1.1-.5-2-.5h-2.8v3.9h2.9c.8 0 1.4-.2 1.9-.5s.7-.8.7-1.5zM129.1 71.8h2.2l5 13.8H134l-1.1-3.2h-5.3l-1.1 3.2h-2.3l4.9-13.8zm3 8.5l-2-5.5-2 5.5h4zM139.3 71.9h2.1l6 9.1v-9.1h2.2v13.7h-1.9l-6.2-9.4v9.4h-2.2V71.9zM154.5 71.9h2.3v6.7l5.3-6.7h2.7l-4.8 5.9 5 7.8h-2.7l-3.9-6-1.7 2.1v3.9h-2.3V71.9z"/></g></svg>